<?xml version="1.1" encoding="UTF-8"?>
<svg width="700" height="420" viewBox="0 0 700 420" fill="none" xmlns="http://www.w3.org/2000/svg">
<rect width="700" height="420" rx="24" fill="#fff"/>
<g font-family="Inter,Arial,sans-serif" font-size="16" font-weight="500" text-anchor="middle">
  <rect x="290" y="20" width="120" height="40" rx="10" fill="#4db8ff" stroke="#2196f3" stroke-width="2"/>
  <text x="350" y="46" fill="#222">Get Game</text>
  <rect x="290" y="80" width="120" height="50" rx="10" fill="#f7f9fc" stroke="#bdbdbd" stroke-width="1.5"/>
  <text x="350" y="110" fill="#222">Where is it?</text>
  <rect x="60" y="160" width="160" height="40" rx="10" fill="#e3f2fd" stroke="#2196f3" stroke-width="1.5"/>
  <text x="140" y="186" fill="#222">Installed on PC</text>
  <rect x="270" y="160" width="160" height="40" rx="10" fill="#e3f2fd" stroke="#2196f3" stroke-width="1.5"/>
  <text x="350" y="186" fill="#222">Downloaded Files</text>
  <rect x="480" y="160" width="160" height="40" rx="10" fill="#e3f2fd" stroke="#2196f3" stroke-width="1.5"/>
  <text x="560" y="186" fill="#222">Pre-installed Files</text>
  <rect x="60" y="230" width="160" height="40" rx="10" fill="#fffde7" stroke="#fbc02d" stroke-width="1.5"/>
  <text x="140" y="256" fill="#222">Transfer to Deck</text>
  <rect x="270" y="230" width="160" height="40" rx="10" fill="#fffde7" stroke="#fbc02d" stroke-width="1.5"/>
  <text x="350" y="256" fill="#222">Compressed?</text>
  <rect x="480" y="230" width="160" height="40" rx="10" fill="#e8f5e9" stroke="#388e3c" stroke-width="1.5"/>
  <text x="560" y="256" fill="#222">Add to Steam</text>
  <rect x="270" y="300" width="160" height="40" rx="10" fill="#e3f2fd" stroke="#2196f3" stroke-width="1.5"/>
  <text x="350" y="326" fill="#222">Extract Files</text>
  <rect x="270" y="370" width="160" height="40" rx="10" fill="#fffde7" stroke="#fbc02d" stroke-width="1.5"/>
  <text x="350" y="396" fill="#222">Installer?</text>
  <rect x="480" y="300" width="160" height="40" rx="10" fill="#e8f5e9" stroke="#388e3c" stroke-width="1.5"/>
  <text x="560" y="326" fill="#222">Enable Proton</text>
  <rect x="480" y="370" width="160" height="40" rx="10" fill="#e8f5e9" stroke="#388e3c" stroke-width="1.5"/>
  <text x="560" y="396" fill="#222">Does it work?</text>
  <rect x="60" y="370" width="160" height="40" rx="10" fill="#fffde7" stroke="#fbc02d" stroke-width="1.5"/>
  <text x="140" y="396" fill="#222">Run Installer</text>
  <rect x="60" y="300" width="160" height="40" rx="10" fill="#e3f2fd" stroke="#2196f3" stroke-width="1.5"/>
  <text x="140" y="326" fill="#222">Add to Steam</text>
  <rect x="480" y="440" width="160" height="40" rx="10" fill="#e8f5e9" stroke="#388e3c" stroke-width="1.5"/>
  <text x="560" y="466" fill="#222">Play Game!</text>
  <rect x="270" y="440" width="160" height="40" rx="10" fill="#ffebee" stroke="#d32f2f" stroke-width="1.5"/>
  <text x="350" y="466" fill="#222">Fix Dependencies</text>
  <!-- Arrows -->
  <g stroke="#888" stroke-width="2" marker-end="url(#arrow)">
    <line x1="350" y1="60" x2="350" y2="80"/>
    <line x1="350" y1="130" x2="140" y2="160"/>
    <line x1="350" y1="130" x2="350" y2="160"/>
    <line x1="350" y1="130" x2="560" y2="160"/>
    <line x1="140" y1="200" x2="140" y2="230"/>
    <line x1="350" y1="200" x2="350" y2="230"/>
    <line x1="560" y1="200" x2="560" y2="230"/>
    <line x1="350" y1="270" x2="350" y2="300"/>
    <line x1="350" y1="340" x2="350" y2="370"/>
    <line x1="350" y1="410" x2="350" y2="440"/>
    <line x1="140" y1="270" x2="140" y2="300"/>
    <line x1="140" y1="340" x2="140" y2="370"/>
    <line x1="560" y1="270" x2="560" y2="300"/>
    <line x1="560" y1="340" x2="560" y2="370"/>
    <line x1="560" y1="410" x2="560" y2="440"/>
    <line x1="350" y1="410" x2="560" y2="440"/>
    <line x1="350" y1="410" x2="140" y2="440"/>
  </g>
  <defs>
    <marker id="arrow" markerWidth="10" markerHeight="10" refX="8" refY="5" orient="auto" markerUnits="strokeWidth">
      <path d="M0,0 L10,5 L0,10 Z" fill="#888" />
    </marker>
  </defs>
</g>
</svg>
